<svg width="116" height="41" viewBox="0 0 116 41" fill="none" xmlns="http://www.w3.org/2000/svg">
<g clip-path="url(#clip0_3024_1822)">
<path d="M108.926 9.35002C108.106 10.1965 107.696 11.3394 107.697 12.7789V24.5023H110.876V15.9948H114.81V13.3699H110.876V12.8207C110.874 12.5425 110.906 12.2651 110.972 11.9948C111.029 11.756 111.138 11.5325 111.292 11.3401C111.458 11.1443 111.672 10.9942 111.913 10.9042C112.225 10.7919 112.555 10.7385 112.886 10.747C113.198 10.7501 113.509 10.7814 113.815 10.8406C114.136 10.8996 114.448 10.9958 114.746 11.1271L115.365 8.60972C114.99 8.46444 114.604 8.34736 114.211 8.25947C113.672 8.13549 113.119 8.07537 112.565 8.08037C110.956 8.08037 109.741 8.50358 108.92 9.35002H108.926ZM101.929 21.2326C101.749 21.5071 101.499 21.7304 101.204 21.8804C100.91 22.0305 100.581 22.1021 100.251 22.0883C99.9184 22.1015 99.5885 22.0297 99.2927 21.8798C98.9969 21.7299 98.7451 21.507 98.5617 21.2326C98.1596 20.6615 97.9586 19.8873 97.9586 18.9162C97.9586 17.945 98.1596 17.1769 98.5617 16.6197C98.7484 16.3499 99.0014 16.1317 99.2968 15.9855C99.5923 15.8392 99.9205 15.7698 100.251 15.7838C100.579 15.7693 100.906 15.8385 101.2 15.9848C101.494 16.1312 101.745 16.3498 101.929 16.6197C102.321 17.1769 102.516 17.9424 102.516 18.9162C102.516 19.8873 102.315 20.6615 101.929 21.2326ZM105.359 16.5241C105.112 15.8408 104.727 15.2145 104.227 14.6833C103.738 14.1679 103.144 13.7609 102.484 13.4893C101.057 12.9242 99.4644 12.9242 98.037 13.4893C97.3759 13.7628 96.7796 14.1695 96.2858 14.6833C95.7793 15.2137 95.3861 15.8398 95.1298 16.5241C94.8446 17.2882 94.7035 18.0977 94.7136 18.9122C94.7025 19.7301 94.8387 20.5435 95.1157 21.3142C95.3633 22.0036 95.749 22.6365 96.2496 23.1749C96.737 23.6916 97.3308 24.0988 97.9907 24.3689C98.7064 24.6581 99.4736 24.8016 100.246 24.7908C101.027 24.8028 101.801 24.6594 102.524 24.3689C103.184 24.0982 103.778 23.6911 104.265 23.1749C104.764 22.6391 105.143 22.005 105.377 21.3142C105.642 20.5409 105.773 19.7287 105.763 18.9122C105.775 18.0988 105.639 17.2899 105.361 16.5241H105.359ZM86.3781 24.5023V16.0366C86.5792 15.9809 86.8003 15.9291 87.0496 15.8794C87.3145 15.8278 87.5839 15.8025 87.8538 15.8037C88.5676 15.8037 89.0601 16.0167 89.3195 16.4386C89.5788 16.8605 89.7216 17.5809 89.7216 18.5978V24.5023H92.9062V18.2117C92.9137 17.5135 92.8381 16.8168 92.681 16.1361C92.5484 15.5505 92.2861 15.0013 91.913 14.5281C91.5273 14.0606 91.0258 13.7 90.4574 13.4814C89.7301 13.2136 88.9572 13.0879 88.1815 13.1112C87.855 13.1127 87.5292 13.144 87.2085 13.2047C86.9305 13.254 86.6558 13.3205 86.3862 13.4037V8.08037L83.1996 8.58783V24.5082L86.3781 24.5023ZM74.8962 22.0585C74.3279 21.9381 73.7704 21.7717 73.2295 21.561L72.6947 24.1202C73.1434 24.2945 73.6044 24.4362 74.0739 24.544C74.8906 24.7294 75.7273 24.8143 76.5649 24.7968C78.0889 24.7968 79.2677 24.5155 80.1014 23.953C80.9351 23.3905 81.3526 22.56 81.3539 21.4615C81.3605 21.0479 81.3063 20.6357 81.1931 20.2376C81.0827 19.8799 80.8923 19.5513 80.6362 19.2764C80.3229 18.9542 79.9581 18.6852 79.5565 18.4804C78.9989 18.1864 78.4203 17.933 77.8255 17.7222C77.4837 17.5895 77.2023 17.4721 76.9811 17.3699C76.7981 17.2859 76.6225 17.1867 76.4564 17.0734C76.3474 17.0025 76.2593 16.9043 76.201 16.7888C76.1568 16.6808 76.1349 16.5651 76.1367 16.4485C76.1367 15.8993 76.6353 15.6246 77.6325 15.6246C78.1251 15.6188 78.6168 15.6682 79.0981 15.7719C79.5063 15.8624 79.909 15.9754 80.3044 16.1102L80.8613 13.6565C80.3751 13.4819 79.8747 13.3488 79.3656 13.2585C78.7167 13.1366 78.0577 13.0759 77.3973 13.0774C76.0301 13.0774 74.9579 13.3812 74.1805 13.9888C73.7984 14.278 73.4921 14.6538 73.2875 15.0847C73.0828 15.5155 72.9857 15.9887 73.0044 16.4644C72.9913 16.9336 73.0712 17.4008 73.2396 17.8396C73.388 18.2095 73.6134 18.5445 73.901 18.8227C74.2062 19.1129 74.5565 19.3527 74.9385 19.5331C75.3809 19.7458 75.8338 19.9364 76.2955 20.1042C76.7916 20.2769 77.2713 20.4927 77.729 20.749C78.0427 20.948 78.1995 21.163 78.1995 21.4157C78.2142 21.5489 78.1873 21.6834 78.1222 21.8009C78.0571 21.9183 77.957 22.0131 77.8356 22.0724C77.4376 22.21 77.0158 22.2675 76.5951 22.2416C76.0274 22.2402 75.4614 22.1802 74.9063 22.0625L74.8962 22.0585ZM65.0127 13.1271C64.6488 13.163 64.303 13.2047 63.9752 13.2545C63.6475 13.3042 63.346 13.36 63.0665 13.4236C62.7871 13.4873 62.5579 13.547 62.3729 13.6028L62.775 16.1421C63.2182 15.9872 63.6763 15.8778 64.1421 15.8157C64.6746 15.7372 65.2122 15.698 65.7505 15.6983C66.5547 15.6983 67.1337 15.8595 67.4594 16.1858C67.6262 16.3561 67.7559 16.5583 67.8406 16.7801C67.9254 17.0019 67.9633 17.2385 67.952 17.4754V17.7719C67.696 17.7059 67.4352 17.66 67.1719 17.6346C66.806 17.5964 66.4382 17.5785 66.0702 17.5809C65.4743 17.5798 64.88 17.6405 64.2969 17.762C63.7611 17.8683 63.2477 18.0649 62.779 18.3431C62.3398 18.6089 61.9759 18.9807 61.7215 19.4236C61.4413 19.9283 61.3025 20.4978 61.3194 21.0734C61.3007 21.6628 61.4175 22.2487 61.6612 22.7868C61.881 23.2443 62.2204 23.6353 62.6443 23.9192C63.1078 24.2238 63.6268 24.436 64.1723 24.544C64.8227 24.6799 65.4859 24.7466 66.1506 24.743C67.1375 24.7553 68.1239 24.6888 69.1 24.544C69.9042 24.4087 70.5476 24.2933 71.0039 24.1938V17.6266C71.0111 16.9908 70.932 16.357 70.7687 15.7421C70.6254 15.2039 70.349 14.7094 69.9645 14.3033C69.5449 13.8832 69.028 13.571 68.4587 13.3938C67.6972 13.1622 66.9027 13.0546 66.1064 13.0754C65.7344 13.0754 65.3685 13.0933 65.0046 13.1291L65.0127 13.1271ZM64.9845 22.0167C64.6494 21.8283 64.4819 21.486 64.4819 20.9898C64.4733 20.7667 64.5328 20.5461 64.6528 20.357C64.7712 20.1854 64.9336 20.048 65.1232 19.959C65.3421 19.856 65.5763 19.7888 65.8169 19.76C66.3316 19.6977 66.8522 19.6977 67.367 19.76C67.5606 19.7789 67.7532 19.8074 67.944 19.8455V22.2336C67.7174 22.2664 67.4892 22.287 67.2604 22.2953C66.9749 22.3092 66.6753 22.3172 66.3617 22.3172C65.8853 22.3412 65.4108 22.2425 64.9845 22.0306V22.0167ZM56.0559 12.9361C56.6028 13.2406 56.8782 13.752 56.8782 14.4704C56.8782 15.1888 56.6068 15.748 56.074 16.0625C55.5412 16.3769 54.6345 16.5281 53.38 16.5281H52.431V12.548C52.6019 12.5321 52.7829 12.5202 52.9759 12.5042C53.1689 12.4883 53.378 12.4843 53.6273 12.4843C54.6995 12.4843 55.5091 12.6356 56.0559 12.9381V12.9361ZM51.3514 9.754C50.594 9.8081 49.8407 9.90779 49.0956 10.0525V24.5062H52.431V19.149H54.0776C54.3631 19.4873 54.6493 19.8641 54.9361 20.2794C55.2216 20.6973 55.5111 21.1371 55.8046 21.6028C56.0982 22.0684 56.3836 22.548 56.6631 23.0416L57.4894 24.5023H61.2169C60.9615 23.9669 60.6821 23.4197 60.3845 22.8625C60.087 22.3052 59.7814 21.7679 59.4537 21.2545C59.126 20.7411 58.8083 20.2455 58.4806 19.7719C58.1529 19.2983 57.8392 18.8804 57.5397 18.5122C58.3581 18.2085 59.0746 17.6847 59.6085 16.9998C60.087 16.359 60.3262 15.5212 60.3262 14.4923C60.3262 12.8406 59.7345 11.6233 58.551 10.8406C57.3674 10.0578 55.6646 9.66644 53.4423 9.66644C52.8392 9.66644 52.1335 9.69629 51.3574 9.75201" fill="#000"/>
<path d="M113.258 32.9772V31.1463C113.556 30.6939 113.832 30.2488 114.087 29.811C114.341 29.3732 114.582 28.952 114.81 28.5473H114.332C114.147 28.9241 113.946 29.3049 113.729 29.6896C113.507 30.0757 113.284 30.4438 113.053 30.7941C112.816 30.4438 112.588 30.0757 112.37 29.6896C112.152 29.3035 111.951 28.9234 111.766 28.5473H111.256C111.475 28.9573 111.716 29.3792 111.974 29.811C112.231 30.2428 112.512 30.6946 112.82 31.1603V32.9831L113.258 32.9772ZM109.639 32.9772V32.601H107.323V30.8339H109.237V30.4617H107.323V28.9195H109.468V28.5413H106.881V32.9772H109.639ZM104.424 32.9772V28.5413H103.992V32.1513C103.857 31.9185 103.686 31.6418 103.477 31.3274C103.268 31.013 103.041 30.6886 102.8 30.3583C102.558 30.0279 102.311 29.7015 102.06 29.3831C101.808 29.0647 101.571 28.7861 101.352 28.5413H101.002V32.9772H101.437V29.2399C101.559 29.3871 101.7 29.5583 101.859 29.7593C102.018 29.9603 102.178 30.1732 102.345 30.402C102.512 30.6309 102.677 30.8657 102.842 31.1085C103.007 31.3513 103.17 31.5841 103.324 31.811C103.479 32.0379 103.618 32.2508 103.743 32.4518C103.867 32.6528 103.972 32.8299 104.056 32.9772H104.424ZM98.1434 31.5603C98.073 31.7783 97.9611 31.9809 97.8136 32.1573C97.6731 32.3217 97.4973 32.4529 97.2989 32.5413C97.0852 32.6307 96.8555 32.6767 96.6234 32.6767C96.3914 32.6767 96.1617 32.6307 95.9479 32.5413C95.7496 32.4529 95.5737 32.3217 95.4332 32.1573C95.2858 31.9809 95.1739 31.7783 95.1035 31.5603C94.948 31.0353 94.948 30.4772 95.1035 29.9523C95.1739 29.7343 95.2858 29.5316 95.4332 29.3553C95.5729 29.191 95.749 29.0609 95.9479 28.9752C96.3809 28.8 96.866 28.8 97.2989 28.9752C97.4978 29.0609 97.674 29.191 97.8136 29.3553C97.9611 29.5316 98.073 29.7343 98.1434 29.9523C98.2988 30.4772 98.2988 31.0353 98.1434 31.5603ZM98.5575 29.7553C98.4572 29.4854 98.3019 29.2388 98.1011 29.0309C97.9121 28.8388 97.6839 28.6889 97.4316 28.5911C96.913 28.3993 96.3419 28.3993 95.8232 28.5911C95.571 28.6889 95.3428 28.8388 95.1538 29.0309C94.953 29.2388 94.7977 29.4854 94.6974 29.7553C94.5797 30.0738 94.5224 30.4112 94.5285 30.7503C94.5219 31.0927 94.5792 31.4334 94.6974 31.7553C94.7967 32.0262 94.9522 32.2737 95.1538 32.4816C95.3423 32.6743 95.5706 32.8244 95.8232 32.9214C96.3414 33.1158 96.9135 33.1158 97.4316 32.9214C97.6842 32.8244 97.9126 32.6743 98.1011 32.4816C98.3027 32.2737 98.4582 32.0262 98.5575 31.7553C98.6757 31.4334 98.733 31.0927 98.7264 30.7503C98.7325 30.4112 98.6752 30.0738 98.5575 29.7553ZM91.8043 30.4677H89.3716V28.5413H88.9333V32.9772H89.3716V30.8458H91.8043V32.9772H92.2446V28.5413H91.8043V30.4677ZM82.0634 32.601V28.5413H81.6232V32.9772H84.1725V32.601H82.0634ZM78.139 30.1612C78.2958 30.5413 78.4586 30.9573 78.6235 31.3891H76.7095C76.8744 30.9513 77.0332 30.5413 77.186 30.1632C77.3388 29.7851 77.4997 29.409 77.6605 29.0408C77.8227 29.407 77.9822 29.7805 78.139 30.1612ZM79.6891 32.9772C79.5081 32.5168 79.3433 32.087 79.1945 31.6876C79.0457 31.2883 78.8976 30.9102 78.7502 30.5533C78.6027 30.1991 78.4587 29.8568 78.3179 29.5264C78.1772 29.1961 78.0271 28.8644 77.8676 28.5314H77.4795C77.32 28.8617 77.1693 29.1934 77.0272 29.5264C76.8824 29.8548 76.7397 30.1971 76.5929 30.5533C76.4461 30.9095 76.2994 31.2856 76.1486 31.6856C75.9978 32.0856 75.835 32.5155 75.6661 32.9752H76.1245C76.2049 32.7603 76.2813 32.5493 76.3517 32.3483C76.422 32.1473 76.4964 31.9503 76.5708 31.7513H78.7602C78.8266 31.9503 78.8949 32.1374 78.9613 32.3384C79.0276 32.5394 79.1121 32.7503 79.1985 32.9672L79.6891 32.9772ZM72.389 28.9214C72.541 28.9459 72.687 28.9985 72.8192 29.0767C72.9445 29.1506 73.049 29.2546 73.1228 29.3792C73.2059 29.5281 73.2463 29.6967 73.2394 29.8667C73.2489 30.0427 73.2085 30.2178 73.1228 30.3722C73.047 30.4947 72.9375 30.5934 72.8072 30.6568C72.6585 30.7269 72.4986 30.7707 72.3347 30.7861C72.1538 30.804 71.9607 30.814 71.7597 30.814H71.1565V28.9254L71.4642 28.8976C71.5868 28.8856 71.7295 28.8797 71.8944 28.8797C72.0622 28.8793 72.2297 28.8933 72.395 28.9214H72.389ZM73.2354 28.8478C72.9238 28.619 72.4593 28.5015 71.8421 28.5015C71.6652 28.5015 71.4722 28.5115 71.2631 28.5314C71.0782 28.5454 70.8951 28.5767 70.7163 28.6249V32.9772H71.1565V31.1861H71.8803C72.0191 31.1861 72.1578 31.1861 72.2945 31.1662C72.3729 31.2677 72.4634 31.3891 72.5659 31.5244C72.6684 31.6598 72.767 31.809 72.8876 31.9702C73.0082 32.1314 73.1047 32.2946 73.2113 32.4657C73.3178 32.6369 73.4123 32.808 73.5048 32.9772H73.9773C73.8914 32.7934 73.7962 32.614 73.6918 32.4399C73.5792 32.2528 73.4646 32.0717 73.35 31.8986C73.2354 31.7254 73.1208 31.5682 73.0102 31.4229C72.8997 31.2777 72.8092 31.1622 72.7408 31.0767C73.0081 31.0041 73.2502 30.8603 73.4405 30.6607C73.628 30.4385 73.7229 30.1538 73.7059 29.8647C73.7186 29.6688 73.6824 29.4727 73.6003 29.294C73.5182 29.1152 73.3929 28.9592 73.2354 28.8399V28.8478ZM67.405 32.9314C67.6027 32.8503 67.7773 32.7225 67.9136 32.5593C68.0458 32.3966 68.1417 32.208 68.1951 32.006C68.2545 31.784 68.2836 31.5551 68.2816 31.3254V28.5394H67.8433V31.2737C67.8471 31.4872 67.8172 31.7001 67.7548 31.9045C67.7058 32.0658 67.6229 32.215 67.5115 32.3423C67.4101 32.457 67.2817 32.5452 67.1376 32.5991C66.8195 32.7104 66.4725 32.7104 66.1545 32.5991C66.0101 32.5447 65.8811 32.4566 65.7785 32.3423C65.6678 32.2148 65.5856 32.0656 65.5372 31.9045C65.4748 31.7001 65.445 31.4872 65.4488 31.2737V28.5413H65.0085V31.3274C65.0071 31.5572 65.0368 31.7861 65.0969 32.008C65.1495 32.2103 65.2455 32.399 65.3784 32.5612C65.5135 32.7249 65.6876 32.8528 65.885 32.9334C66.3753 33.1137 66.9147 33.1137 67.405 32.9334V32.9314ZM59.7249 28.5354V28.9135H61.1604V32.9772H61.6007V28.9195H63.0261V28.5413L59.7249 28.5354ZM57.0429 30.1553C57.1997 30.5354 57.3606 30.9513 57.5254 31.3831H55.6074C55.7723 30.9453 55.9311 30.5354 56.0839 30.1573C56.2367 29.7792 56.3955 29.403 56.5584 29.0349C56.7206 29.401 56.8801 29.7745 57.0369 30.1553H57.0429ZM58.585 32.9712C58.4067 32.5108 58.2418 32.081 58.0904 31.6816C57.9389 31.2823 57.7908 30.9042 57.6461 30.5473C57.5013 30.1931 57.3572 29.8508 57.2138 29.5205C57.0731 29.1921 56.9223 28.8637 56.7655 28.5254H56.3774C56.2193 28.8558 56.0685 29.1875 55.9251 29.5205C55.7817 29.8535 55.6369 30.1964 55.4908 30.5493C55.3441 30.9035 55.1973 31.2816 55.0445 31.6816C54.8917 32.0816 54.7329 32.5115 54.564 32.9712H55.0224L55.2496 32.3443C55.3219 32.1453 55.3943 31.9463 55.4687 31.7473H57.6581C57.7245 31.9463 57.7928 32.1334 57.8592 32.3344C57.9255 32.5354 58.01 32.7463 58.0944 32.9632L58.585 32.9712ZM52.6219 32.9712V28.5413H52.1896V32.1513C52.0549 31.9185 51.882 31.6418 51.6729 31.3274C51.4638 31.013 51.2386 30.6886 50.9974 30.3583C50.7561 30.0279 50.5088 29.7015 50.2575 29.3831C50.0062 29.0647 49.769 28.7861 49.5498 28.5413H49.2V32.9772H49.6343V29.2399C49.7569 29.3871 49.8976 29.5583 50.0565 29.7593C50.2153 29.9603 50.3761 30.1732 50.541 30.402C50.7059 30.6309 50.8727 30.8657 51.0396 31.1085C51.2065 31.3513 51.3673 31.5841 51.5221 31.811C51.6769 32.0379 51.8156 32.2508 51.9403 32.4518C52.0649 32.6528 52.1695 32.8299 52.2539 32.9772L52.6219 32.9712Z" fill="#000"/>
<path d="M29.4851 5.91518C29.2257 5.91518 23.6828 6.0306 19.2175 11.0396C14.7542 6.0306 9.20728 5.91717 8.94391 5.91518C7.85683 5.89833 6.77722 6.09571 5.76794 6.49583C4.75867 6.89596 3.83989 7.49083 3.06512 8.24581C2.29034 9.00079 1.67504 9.90079 1.25505 10.8934C0.835063 11.886 0.618774 12.9515 0.618774 14.0276C0.618774 15.1038 0.835063 16.1692 1.25505 17.1618C1.67504 18.1544 2.29034 19.0545 3.06512 19.8094C3.83989 20.5644 4.75867 21.1593 5.76794 21.5594C6.77722 21.9595 7.85683 22.1569 8.94391 22.1401C10.0276 22.1424 11.1077 22.0155 12.1607 21.7619C11.4037 23.4394 11.0191 25.2581 11.0328 27.0953C11.0351 28.9293 11.6644 30.7085 12.8183 32.1434C13.9722 33.5783 15.5828 34.5843 17.388 34.9978V35.0814V38.6356C17.388 39.1185 17.5818 39.5817 17.9268 39.9231C18.2718 40.2646 18.7397 40.4565 19.2276 40.4565C19.7155 40.4565 20.1834 40.2646 20.5284 39.9231C20.8734 39.5817 21.0672 39.1185 21.0672 38.6356V35.0814V34.9978C22.8756 34.5841 24.4893 33.5764 25.6451 32.1388C26.801 30.7013 27.431 28.9186 27.4324 27.0814C27.4324 26.9122 27.3801 24.5341 25.9567 21.6744C27.1176 21.9879 28.316 22.1445 29.5193 22.1401C30.6063 22.1558 31.6857 21.9574 32.6946 21.5562C33.7034 21.1551 34.6216 20.5594 35.3956 19.8036C36.1696 19.0479 36.784 18.1473 37.2029 17.1543C37.6219 16.1613 37.8372 15.0957 37.8361 14.0195C37.835 12.9434 37.6177 11.8782 37.1967 10.886C36.7758 9.89381 36.1596 8.99441 35.3841 8.24019C34.6086 7.48596 33.6893 6.89198 32.6796 6.49282C31.67 6.09366 30.5902 5.89731 29.5032 5.91518H29.4851ZM4.40422 14.0326C4.4042 12.8479 4.87784 11.7114 5.72167 10.8713C6.56549 10.0312 7.71093 9.55585 8.90772 9.54901C9.10877 9.54901 13.5962 9.70424 17.0381 14.1261C16.0168 15.6246 13.4595 18.5122 8.94391 18.5122C7.74202 18.5133 6.58885 18.0421 5.73767 17.2022C4.88649 16.3622 4.40689 15.2223 4.40422 14.0326ZM19.2175 31.5868C18.0161 31.5852 16.8644 31.1122 16.0149 30.2713C15.1654 29.4304 14.6875 28.2904 14.6859 27.1013C14.6859 22.6197 17.6111 20.0883 19.123 19.0794C23.5923 22.4883 23.7471 26.9281 23.7471 27.1013C23.7461 28.2906 23.2683 29.4309 22.4187 30.2719C21.5691 31.1128 20.417 31.5858 19.2155 31.5868H19.2175ZM29.4992 18.5182C24.9735 18.5122 22.4142 15.6246 21.3969 14.1202C24.8409 9.69628 29.3263 9.54304 29.5012 9.54304C30.1042 9.53047 30.7036 9.63717 31.2644 9.85689C31.8252 10.0766 32.3361 10.4049 32.767 10.8226C33.198 11.2403 33.5404 11.7389 33.7741 12.2893C34.0079 12.8396 34.1283 13.4306 34.1283 14.0276C34.1283 14.6246 34.0079 15.2156 33.7741 15.766C33.5404 16.3163 33.198 16.8149 32.767 17.2326C32.3361 17.6503 31.8252 17.9786 31.2644 18.1983C30.7036 18.4181 30.1042 18.5248 29.5012 18.5122" fill="url(#paint0_linear_3024_1822)"/>
<path d="M19.1432 7.26598V7.33364L19.2176 7.29981L19.292 7.33364V7.26598C25.3516 4.70678 23.0376 1.56449 23.0376 1.56449C21.3769 -0.45342 19.5916 1.60827 19.2176 2.19932C18.8457 1.6023 17.0584 -0.45342 15.3977 1.56449C15.3977 1.56449 13.0816 4.70678 19.1412 7.26598" fill="url(#paint1_linear_3024_1822)"/>
</g>
<defs>
<linearGradient id="paint0_linear_3024_1822" x1="25166.6" y1="3908.86" x2="32008.3" y2="3908.86" gradientUnits="userSpaceOnUse">
<stop stop-color="#D9AD6A"/>
<stop offset="0.28" stop-color="#C38F52"/>
<stop offset="0.31" stop-color="#C99558"/>
<stop offset="0.52" stop-color="#EFBC79"/>
<stop offset="0.63" stop-color="#FECB86"/>
<stop offset="0.76" stop-color="#EDBA77"/>
<stop offset="1" stop-color="#C38F52"/>
</linearGradient>
<linearGradient id="paint1_linear_3024_1822" x1="6370.32" y1="111.326" x2="6730.4" y2="111.326" gradientUnits="userSpaceOnUse">
<stop stop-color="#D9AD6A"/>
<stop offset="0.28" stop-color="#C38F52"/>
<stop offset="0.31" stop-color="#C99558"/>
<stop offset="0.52" stop-color="#EFBC79"/>
<stop offset="0.63" stop-color="#FECB86"/>
<stop offset="0.76" stop-color="#EDBA77"/>
<stop offset="1" stop-color="#C38F52"/>
</linearGradient>
<clipPath id="clip0_3024_1822">
<rect width="115" height="40" fill="white" transform="translate(0.5 0.5)"/>
</clipPath>
</defs>
</svg>
